# xmcd
#
# Track frame offsets:
#	182
#	11625
#	30782
#	41270
#	53612
#	70867
#	85562
#	96682
#	108787
#	121552
#	132032
#
# Disc length: 1917 seconds
#
# Revision: 2
# Processed by: cddbd v1.5.1PL0 Copyright (c) Steve Scherf et al.
# Submitted via: audiograbber 1.83.01
#
DISCID=74077b0b
DTITLE=Various Artist - The 101 Greatest Country Hits Vol 10:  Country Roads
DYEAR=1900
DGENRE=
TTITLE0=Willie Nelson - On The Road Again
TTITLE1=Bobbie Gentry - Ode To Bilie Joe
TTITLE2=Jerry Reed - When You're Hot, You're Hot
TTITLE3=Merle Haggard - Okie From Muskogee
TTITLE4=CW Mccall - Convoy
TTITLE5=Glen Cambell - Rhinestone Cowboy
TTITLE6=Roger Miller - King Of The Road
TTITLE7=Jody Miller - Queen Of The House
TTITLE8=Bobby Bare - Detroit City
TTITLE9=Dave Dudley - Six Days On The Road
TTITLE10=Del Reeves - Girl On The Bilboard
EXTD=
EXTT0=WILLIE NELSON
EXTT1=BOBBIE GENTRY
EXTT2=JERRY REED
EXTT3=MERLE HAGGARD
EXTT4=C.W. McCALL
EXTT5=GLEN CAMPBELL
EXTT6=ROGER MILLER
EXTT7=JODY MILLER
EXTT8=BOBBY BARE
EXTT9=DAVE DUDLEY
EXTT10=DEL REEVES
PLAYORDER=
